<svg width="525" height="249" viewBox="0 0 525 249" fill="none" xmlns="http://www.w3.org/2000/svg">
<path fill-rule="evenodd" clip-rule="evenodd" d="M227.858 0L285.488 72.471V80.0145L225.76 5.86795C216.224 8.50461 212.939 17.509 212.525 22.099C212.359 46.985 212.129 100.521 212.525 116.763C212.692 123.586 217.198 128.394 222.907 131.398C225.74 132.888 228.753 133.861 231.4 134.352C234.132 134.859 237.402 134.797 238.394 134.509L238.635 139.606C236.477 140.231 233.483 140.136 230.432 139.57C227.296 138.988 223.771 137.849 220.436 136.094C213.807 132.606 207.452 126.385 207.221 116.892C206.821 100.523 207.054 46.755 207.22 21.9585L207.22 21.8581L207.229 21.7581C207.718 15.828 212.134 3.01097 226.288 0.300613L227.858 0Z" fill="#BCBCBC"/>
<path d="M285.49 17.333H239.723L285.49 76.6979V17.333Z" fill="#BCBCBC"/>
<path fill-rule="evenodd" clip-rule="evenodd" d="M295.142 140.036L237.512 67.5648V60.0214L297.24 134.168C306.776 131.531 310.061 122.527 310.475 117.937C310.641 93.0509 310.871 39.5154 310.475 23.2732C310.308 16.4494 305.802 11.6423 300.093 8.63826C297.26 7.14756 294.247 6.17454 291.6 5.68357C288.868 5.17687 285.598 5.23921 284.606 5.52654L284.365 0.429423C286.523 -0.195281 289.517 -0.0997683 292.568 0.466203C295.704 1.04789 299.229 2.18706 302.564 3.94236C309.193 7.43031 315.548 13.6505 315.779 23.1438C316.179 39.5128 315.946 93.2809 315.78 118.077L315.78 118.178L315.771 118.278C315.282 124.208 310.866 137.025 296.712 139.735L295.142 140.036Z" fill="#FBE5CB"/>
<path d="M237.51 122.703H283.277L237.51 63.338V122.703Z" fill="#FBE5CB"/>
<path d="M520.028 197.6C515.528 191.2 507.928 187 498.428 187C482.428 187 471.728 198.6 471.728 214.5C471.728 230.4 482.428 242 498.428 242C507.928 242 515.528 237.6 520.028 231.3L524.728 234.7C519.128 242.8 509.928 247.8 498.428 247.8C479.128 247.8 465.928 233.8 465.928 214.5C465.928 195.2 479.128 181.2 498.428 181.2C509.928 181.2 519.128 186.2 524.728 194.3L520.028 197.6Z" fill="#FBE5CB"/>
<path d="M452.118 182H457.918V247H452.218L414.718 191.9V247H408.918V182H414.518L452.118 237.2V182Z" fill="#FBE5CB"/>
<path d="M403.801 182L380.501 218V247H374.701V218.2L351.301 182H358.101L377.501 212.2L397.001 182H403.801Z" fill="#FBE5CB"/>
<path d="M298.217 233.4L303.017 230.4C305.617 237.2 313.617 242.3 324.917 242.3C337.217 242.3 342.717 237.7 342.717 229.1C342.717 219.6 329.217 217.4 323.017 215.7C316.317 214 300.417 211.6 300.417 198.5C300.417 186.8 310.317 180.9 324.417 180.9C336.217 180.9 345.617 186.3 348.017 193.5L343.117 196.1C341.317 190.9 333.617 186.6 323.917 186.6C312.917 186.6 306.817 190.9 306.817 198.3C306.817 207.1 319.117 208.9 326.017 210.6C332.017 212.3 349.017 215.4 349.017 228.9C349.017 241.5 340.017 248.1 324.417 248.1C310.717 248.1 301.317 242.1 298.217 233.4Z" fill="#FBE5CB"/>
<path d="M241.654 241.6H277.154V247H235.854V182H241.654V241.6Z" fill="#FBE5CB"/>
<path d="M227.35 187.4H191.65V211.9H225.25V217.3H191.65V241.6H227.35V247H185.85V182H227.35V187.4Z" fill="#FBE5CB"/>
<path d="M174.78 182H180.88L154.28 247H149.68L123.08 182H129.28L151.98 237.9L174.78 182Z" fill="#FBE5CB"/>
<path d="M89.5098 247.8C70.2098 247.8 57.0098 233.8 57.0098 214.5C57.0098 195.2 70.2098 181.2 89.5098 181.2C108.81 181.2 121.91 195.2 121.91 214.5C121.91 233.8 108.81 247.8 89.5098 247.8ZM89.5098 242C105.61 242 116.11 230.4 116.11 214.5C116.11 198.6 105.61 187 89.5098 187C73.5098 187 62.8098 198.6 62.8098 214.5C62.8098 230.4 73.5098 242 89.5098 242Z" fill="#FBE5CB"/>
<path d="M43.2 182H49V247H43.3L5.8 191.9V247H0V182H5.6L43.2 237.2V182Z" fill="#FBE5CB"/>
</svg>
