<svg width="114" height="82" viewBox="0 0 114 82" fill="none" xmlns="http://www.w3.org/2000/svg">
<path d="M14.0694 65.9091V79H12.5353L5.40181 68.7216H5.27397V79H3.68874V65.9091H5.22283L12.3819 76.2131H12.5098V65.9091H14.0694ZM28.2869 72.4545C28.2869 73.8352 28.0376 75.0284 27.5391 76.0341C27.0405 77.0398 26.3565 77.8153 25.4872 78.3608C24.6179 78.9062 23.625 79.179 22.5085 79.179C21.392 79.179 20.3991 78.9062 19.5298 78.3608C18.6605 77.8153 17.9766 77.0398 17.478 76.0341C16.9794 75.0284 16.7301 73.8352 16.7301 72.4545C16.7301 71.0739 16.9794 69.8807 17.478 68.875C17.9766 67.8693 18.6605 67.0938 19.5298 66.5483C20.3991 66.0028 21.392 65.7301 22.5085 65.7301C23.625 65.7301 24.6179 66.0028 25.4872 66.5483C26.3565 67.0938 27.0405 67.8693 27.5391 68.875C28.0376 69.8807 28.2869 71.0739 28.2869 72.4545ZM26.7528 72.4545C26.7528 71.321 26.5632 70.3643 26.1839 69.5845C25.8089 68.8047 25.2997 68.2145 24.6562 67.8139C24.017 67.4134 23.3011 67.2131 22.5085 67.2131C21.7159 67.2131 20.9979 67.4134 20.3544 67.8139C19.7152 68.2145 19.206 68.8047 18.8267 69.5845C18.4517 70.3643 18.2642 71.321 18.2642 72.4545C18.2642 73.5881 18.4517 74.5447 18.8267 75.3246C19.206 76.1044 19.7152 76.6946 20.3544 77.0952C20.9979 77.4957 21.7159 77.696 22.5085 77.696C23.3011 77.696 24.017 77.4957 24.6562 77.0952C25.2997 76.6946 25.8089 76.1044 26.1839 75.3246C26.5632 74.5447 26.7528 73.5881 26.7528 72.4545ZM30.8741 65.9091L34.7605 76.929H34.9139L38.8002 65.9091H40.4622L35.6554 79H34.019L29.2122 65.9091H30.8741ZM42.5012 79V65.9091H50.4018V67.3153H44.0865V71.7386H49.9927V73.1449H44.0865V77.5938H50.5041V79H42.5012ZM53.2591 79V65.9091H54.8443V77.5938H60.9295V79H53.2591ZM70.5431 69.1818C70.4664 68.5341 70.1554 68.0312 69.6099 67.6733C69.0645 67.3153 68.3954 67.1364 67.6028 67.1364C67.0233 67.1364 66.5162 67.2301 66.0815 67.4176C65.6511 67.6051 65.3145 67.8629 65.0716 68.1911C64.8329 68.5192 64.7136 68.892 64.7136 69.3097C64.7136 69.6591 64.7967 69.9595 64.9629 70.2109C65.1333 70.4581 65.3507 70.6648 65.6149 70.831C65.8791 70.9929 66.1561 71.1271 66.4458 71.2337C66.7356 71.3359 67.002 71.419 67.2449 71.483L68.5744 71.8409C68.9153 71.9304 69.2946 72.054 69.7122 72.2116C70.1341 72.3693 70.5368 72.5845 70.9203 72.8572C71.3081 73.1257 71.6277 73.4709 71.8791 73.8928C72.1305 74.3146 72.2562 74.8324 72.2562 75.446C72.2562 76.1534 72.0708 76.7926 71.7001 77.3636C71.3336 77.9347 70.7967 78.3885 70.0893 78.7251C69.3862 79.0618 68.5318 79.2301 67.5261 79.2301C66.5886 79.2301 65.7768 79.0788 65.0907 78.7763C64.4089 78.4737 63.872 78.0518 63.4799 77.5107C63.0922 76.9695 62.8727 76.3409 62.8216 75.625H64.4579C64.5005 76.1193 64.6667 76.5284 64.9565 76.8523C65.2505 77.1719 65.6213 77.4105 66.0687 77.5682C66.5204 77.7216 67.0062 77.7983 67.5261 77.7983C68.1312 77.7983 68.6745 77.7003 69.1561 77.5043C69.6376 77.304 70.019 77.027 70.3002 76.6733C70.5815 76.3153 70.7221 75.8977 70.7221 75.4205C70.7221 74.9858 70.6007 74.6321 70.3578 74.3594C70.1149 74.0866 69.7953 73.8651 69.399 73.6946C69.0027 73.5241 68.5744 73.375 68.1142 73.2472L66.5034 72.7869C65.4806 72.4929 64.671 72.0732 64.0744 71.5277C63.4778 70.9822 63.1795 70.2685 63.1795 69.3864C63.1795 68.6534 63.3777 68.0142 63.774 67.4688C64.1745 66.919 64.7115 66.4929 65.3848 66.1903C66.0623 65.8835 66.8187 65.7301 67.6539 65.7301C68.4977 65.7301 69.2477 65.8814 69.9039 66.1839C70.5602 66.4822 71.0801 66.8913 71.4636 67.4112C71.8514 67.9311 72.0559 68.5213 72.0772 69.1818H70.5431ZM73.7376 65.9091H75.5529L79.1836 72.0199H79.337L82.9677 65.9091H84.783L80.0529 73.6051V79H78.4677V73.6051L73.7376 65.9091ZM97.214 65.9091V79H95.6799L88.5463 68.7216H88.4185V79H86.8333V65.9091H88.3674L95.5265 76.2131H95.6543V65.9091H97.214ZM110.92 70H109.335C109.241 69.544 109.077 69.1435 108.843 68.7983C108.613 68.4531 108.331 68.1634 107.999 67.929C107.671 67.6903 107.306 67.5114 106.906 67.392C106.505 67.2727 106.088 67.2131 105.653 67.2131C104.86 67.2131 104.142 67.4134 103.499 67.8139C102.86 68.2145 102.35 68.8047 101.971 69.5845C101.596 70.3643 101.409 71.321 101.409 72.4545C101.409 73.5881 101.596 74.5447 101.971 75.3246C102.35 76.1044 102.86 76.6946 103.499 77.0952C104.142 77.4957 104.86 77.696 105.653 77.696C106.088 77.696 106.505 77.6364 106.906 77.517C107.306 77.3977 107.671 77.2209 107.999 76.9865C108.331 76.7479 108.613 76.456 108.843 76.1108C109.077 75.7614 109.241 75.3608 109.335 74.9091H110.92C110.801 75.5781 110.583 76.1768 110.268 76.7053C109.953 77.2337 109.561 77.6832 109.092 78.054C108.623 78.4205 108.097 78.6996 107.513 78.8913C106.934 79.0831 106.314 79.179 105.653 79.179C104.537 79.179 103.544 78.9062 102.674 78.3608C101.805 77.8153 101.121 77.0398 100.623 76.0341C100.124 75.0284 99.8746 73.8352 99.8746 72.4545C99.8746 71.0739 100.124 69.8807 100.623 68.875C101.121 67.8693 101.805 67.0938 102.674 66.5483C103.544 66.0028 104.537 65.7301 105.653 65.7301C106.314 65.7301 106.934 65.826 107.513 66.0178C108.097 66.2095 108.623 66.4908 109.092 66.8615C109.561 67.228 109.953 67.6754 110.268 68.2038C110.583 68.728 110.801 69.3267 110.92 70Z" fill="white"/>
<path d="M26.2188 54.125C26.5104 52.75 26.7188 51.5417 26.8438 50.5C27.0104 49.4167 27.1354 48.5208 27.2188 47.8125C27.3021 46.9792 27.3438 46.2708 27.3438 45.6875C27.3021 44.9792 27.2604 44.1458 27.2188 43.1875C27.2188 42.1875 27.1771 41.2083 27.0938 40.25C27.0521 39.25 26.9896 38.375 26.9062 37.625C26.8229 36.8333 26.7188 36.2708 26.5938 35.9375C26.4271 35.6042 26.1979 35.25 25.9062 34.875C25.3229 34.1667 24.4688 33.4792 23.3438 32.8125C24.3021 32.6042 25.1146 32.4375 25.7812 32.3125C26.4896 32.1458 27.0729 32 27.5312 31.875C28.0312 31.7083 28.4688 31.5625 28.8438 31.4375C29.1771 31.3125 29.5729 31.1875 30.0312 31.0625C30.4062 30.9792 30.8646 30.875 31.4062 30.75C31.9479 30.625 32.5729 30.4792 33.2812 30.3125L33.0938 36C34.4271 34.4167 35.7812 33.2292 37.1562 32.4375C38.5312 31.6458 39.8229 31.0833 41.0312 30.75C42.4062 30.3333 43.7604 30.125 45.0938 30.125C46.7604 30.2083 48.3021 30.4792 49.7188 30.9375C51.1771 31.3958 52.4271 31.9375 53.4688 32.5625C54.5521 33.1458 55.4271 33.7708 56.0938 34.4375C56.7604 35.1042 57.1562 35.6875 57.2812 36.1875C57.7812 37.8125 57.9062 39.3125 57.6562 40.6875C57.4062 42.0208 57.0729 43.3333 56.6562 44.625C56.2812 45.875 55.9479 47.125 55.6562 48.375C55.4062 49.625 55.5104 50.9792 55.9688 52.4375C56.1354 52.8125 56.3021 53.1875 56.4688 53.5625C56.6354 53.8958 56.8438 54.2292 57.0938 54.5625C57.3438 54.8958 57.6354 55.1667 57.9688 55.375C57.5104 55.3333 57.0521 55.3125 56.5938 55.3125C56.1354 55.2708 55.7188 55.2292 55.3438 55.1875C54.8854 55.1458 54.4688 55.1042 54.0938 55.0625C53.6771 55.0208 53.1146 55 52.4062 55C51.1979 55 49.3229 55.0625 46.7812 55.1875C47.1562 54.3125 47.4479 53.5833 47.6562 53C47.9062 52.375 48.1146 51.875 48.2812 51.5C48.4479 51.0417 48.5729 50.6875 48.6562 50.4375C49.1562 49.2292 49.4479 47.8542 49.5312 46.3125C49.6562 44.7708 49.5521 43.2083 49.2188 41.625C49.0938 41.0833 48.8854 40.4375 48.5938 39.6875C48.3021 38.9375 47.9062 38.2083 47.4062 37.5C46.9479 36.7917 46.3854 36.1875 45.7188 35.6875C45.0938 35.1875 44.3646 34.8958 43.5312 34.8125C42.6979 34.7292 41.7604 34.9375 40.7188 35.4375C39.7188 35.9375 38.6354 36.8542 37.4688 38.1875C36.5938 39.3125 35.9062 40.6875 35.4062 42.3125C34.9479 43.6875 34.6354 45.4167 34.4688 47.5C34.3021 49.5417 34.5521 51.9375 35.2188 54.6875C34.6354 54.6042 34.0938 54.5625 33.5938 54.5625C33.0938 54.5208 32.6771 54.4792 32.3438 54.4375C31.9271 54.3958 31.5521 54.3542 31.2188 54.3125C30.8438 54.3125 30.4271 54.2917 29.9688 54.25C29.5521 54.25 29.0312 54.25 28.4062 54.25C27.7812 54.2083 27.0521 54.1667 26.2188 54.125Z" fill="#845041"/>
<path d="M89.3438 25.3125C88.9688 26.2292 88.6354 27.0625 88.3438 27.8125C88.0938 28.5625 87.8646 29.2292 87.6562 29.8125C87.4479 30.4792 87.2604 31.0625 87.0938 31.5625C86.9271 32.1458 86.7396 32.8125 86.5312 33.5625C86.3229 34.2292 86.0521 35.0625 85.7188 36.0625C85.4271 37.0208 85.0729 38.1667 84.6562 39.5C84.3229 37.5 83.7188 35.9167 82.8438 34.75C81.9688 33.5417 81.0729 32.6042 80.1562 31.9375C79.0729 31.1875 77.9062 30.6458 76.6562 30.3125C74.4062 29.9375 72.7812 29.9792 71.7812 30.4375C70.7812 30.8958 70.1146 31.4792 69.7812 32.1875C69.6146 32.4792 69.4271 32.8542 69.2188 33.3125C69.0521 33.7292 68.9062 34.1667 68.7812 34.625C68.6979 35.0833 68.6771 35.5417 68.7188 36C68.7604 36.4583 68.9479 36.8333 69.2812 37.125C69.4896 37.3333 70.0312 37.625 70.9062 38C71.7812 38.3333 72.8229 38.7292 74.0312 39.1875C75.2812 39.6042 76.5938 40.0625 77.9688 40.5625C79.3854 41.0625 80.7188 41.5625 81.9688 42.0625C83.2188 42.5625 84.3021 43.0625 85.2188 43.5625C86.1354 44.0625 86.7396 44.5208 87.0312 44.9375C87.2812 45.3542 87.5521 45.9167 87.8438 46.625C88.1771 47.2917 88.4062 48.0417 88.5312 48.875C88.6979 49.6667 88.7396 50.5 88.6562 51.375C88.6146 52.2083 88.3854 53.0417 87.9688 53.875C87.5521 54.7083 86.8854 55.4792 85.9688 56.1875C85.0938 56.8958 83.9062 57.4792 82.4062 57.9375C80.6562 58.4792 78.9688 58.625 77.3438 58.375C75.7188 58.125 74.2188 57.75 72.8438 57.25C71.5104 56.75 70.3438 56.2708 69.3438 55.8125C68.3438 55.3125 67.6354 55.1042 67.2188 55.1875C66.7604 55.2708 66.2396 55.5 65.6562 55.875C65.0729 56.25 64.5104 56.6458 63.9688 57.0625C63.4688 57.4375 63.0312 57.7917 62.6562 58.125C62.2812 58.4167 62.0938 58.5208 62.0938 58.4375C62.0938 58.3542 62.1562 58.1042 62.2812 57.6875C62.4479 57.2708 62.6146 56.7708 62.7812 56.1875C62.9896 55.5625 63.1771 54.8958 63.3438 54.1875C63.5521 53.4375 63.6979 52.7292 63.7812 52.0625C63.8646 51.5208 63.9688 50.8542 64.0938 50.0625C64.1771 49.3542 64.2812 48.5 64.4062 47.5C64.5729 46.4583 64.7604 45.2083 64.9688 43.75C65.1771 44.8333 65.4688 45.7708 65.8438 46.5625C66.2604 47.3542 66.6562 48.0417 67.0312 48.625C67.4896 49.2917 67.9271 49.8542 68.3438 50.3125C68.9688 50.8958 69.6979 51.4375 70.5312 51.9375C71.4062 52.4375 72.2812 52.875 73.1562 53.25C74.0312 53.5833 74.8646 53.7917 75.6562 53.875C76.4479 53.9583 77.1146 53.875 77.6562 53.625C78.1979 53.375 78.6562 52.9167 79.0312 52.25C79.4479 51.5833 79.7396 50.8542 79.9062 50.0625C80.0729 49.2708 80.1354 48.5208 80.0938 47.8125C80.0521 47.0625 79.8646 46.4583 79.5312 46C79.2812 45.7083 78.6979 45.3333 77.7812 44.875C76.9062 44.4167 75.8438 43.9167 74.5938 43.375C73.3854 42.8333 72.0938 42.2708 70.7188 41.6875C69.3854 41.1042 68.1146 40.5208 66.9062 39.9375C65.7396 39.3125 64.7604 38.7292 63.9688 38.1875C63.2188 37.6042 62.8021 37.0833 62.7188 36.625C62.6354 35.9583 62.5729 35.2292 62.5312 34.4375C62.4896 33.6042 62.5312 32.7917 62.6562 32C62.8229 31.1667 63.1146 30.375 63.5312 29.625C63.9896 28.875 64.6562 28.25 65.5312 27.75C66.1146 27.4167 66.8854 27.1667 67.8438 27C68.8021 26.8333 69.8646 26.75 71.0312 26.75C72.1979 26.7083 73.4062 26.75 74.6562 26.875C75.9062 26.9583 77.0938 27.0833 78.2188 27.25C79.3854 27.375 80.4271 27.5417 81.3438 27.75C82.3021 27.9583 83.0312 28.1458 83.5312 28.3125C84.1146 28.5208 84.7396 28.5417 85.4062 28.375C85.9896 28.25 86.6146 27.9792 87.2812 27.5625C87.9479 27.1458 88.6354 26.3958 89.3438 25.3125Z" fill="#D9D9D9"/>
</svg>
